<?xml version="1.0" standalone="no"?>
<!DOCTYPE svg PUBLIC "-//W3C//DTD SVG 20010904//EN"
 "http://www.w3.org/TR/2001/REC-SVG-20010904/DTD/svg10.dtd">
<svg version="1.0" xmlns="http://www.w3.org/2000/svg"
 width="324.000000pt" height="155.000000pt" viewBox="0 0 324.000000 155.000000"
 preserveAspectRatio="xMidYMid meet">

<g transform="translate(0.000000,155.000000) scale(0.100000,-0.100000)"
fill="#000000" stroke="none">
<path d="M46 944 c-12 -30 -5 -34 59 -34 l65 0 -6 -27 c-4 -16 -22 -84 -40
-153 -44 -161 -44 -162 3 -158 43 3 41 1 91 213 l27 120 65 3 c62 3 80 12 80
40 0 9 -40 12 -169 12 -145 0 -170 -2 -175 -16z"/>
<path d="M2706 948 c-2 -7 -7 -25 -10 -40 -4 -16 -13 -28 -21 -28 -19 0 -19
17 0 27 13 8 13 12 2 27 -11 16 -17 17 -36 6 -21 -11 -22 -13 -6 -30 16 -17
15 -19 -4 -30 -30 -16 -26 -30 9 -30 17 0 30 -4 30 -10 0 -5 -15 -10 -34 -10
-21 0 -36 -6 -40 -15 -4 -10 1 -15 14 -15 26 0 25 -12 -3 -38 -23 -22 -47 -29
-47 -14 0 4 9 43 20 87 11 44 20 85 20 90 0 6 -22 9 -53 7 l-54 -4 -23 -106
c-12 -59 -33 -133 -45 -164 -18 -47 -20 -60 -9 -69 10 -8 17 -2 32 28 11 21
22 50 26 66 3 15 13 27 21 27 20 0 20 -50 0 -76 -21 -28 -19 -54 5 -54 23 0
35 24 45 93 7 46 17 58 30 37 4 -6 11 -8 16 -5 5 4 9 -5 9 -19 0 -23 2 -24 60
-21 33 1 63 -2 66 -6 8 -13 -5 -49 -18 -49 -5 0 -8 7 -4 15 4 13 -7 15 -69 15
-60 0 -75 -3 -75 -15 0 -12 13 -15 59 -15 50 0 59 -3 64 -20 6 -23 48 -28 64
-7 8 9 43 102 43 113 0 2 -13 4 -30 6 -22 2 -27 6 -21 17 7 10 13 11 29 2 17
-9 23 -7 37 11 15 22 14 24 -15 37 -39 19 -38 29 2 27 23 -1 33 4 36 17 3 15
-5 17 -58 17 -38 0 -59 4 -55 10 3 6 28 10 55 10 33 0 50 5 54 15 3 9 0 15 -9
15 -19 0 -19 9 0 30 14 15 14 18 0 30 -12 10 -18 8 -34 -11 -10 -13 -16 -29
-14 -36 3 -8 -2 -13 -12 -13 -17 0 -17 8 -4 60 5 19 -39 27 -45 8z m-156 -72
c0 -23 -22 -51 -32 -41 -2 3 -3 18 0 35 5 36 32 41 32 6z m-24 -98 c-3 -13 -6
-26 -6 -30 0 -5 -7 -8 -16 -8 -11 0 -14 5 -10 16 3 9 6 22 6 30 0 8 7 14 16
14 12 0 15 -6 10 -22z m184 1 c0 -5 -7 -9 -15 -9 -15 0 -20 12 -9 23 8 8 24
-1 24 -14z m-10 -43 c0 -20 -16 -36 -37 -36 -13 0 -21 4 -18 10 3 6 1 10 -4
10 -6 0 -11 5 -11 10 0 6 16 10 35 10 19 0 35 -2 35 -4z"/>
<path d="M2927 937 c-25 -18 -5 -77 24 -70 26 7 30 16 23 52 -7 33 -20 38 -47
18z"/>
<path d="M3010 910 c0 -11 7 -20 15 -20 16 0 19 -28 9 -67 -4 -14 -15 -23 -32
-25 -37 -4 -43 -38 -7 -38 20 0 25 -4 21 -17 -6 -21 -36 -152 -36 -159 0 -2
10 -4 23 -4 21 0 25 8 42 90 17 79 22 90 40 90 20 0 21 -4 17 -66 -5 -77 9
-114 44 -114 22 0 54 41 54 68 0 16 -33 24 -41 10 -19 -31 -19 9 1 119 11 65
23 126 26 136 5 15 -4 17 -85 17 -84 0 -91 -1 -91 -20z m124 -47 c-13 -59 -15
-63 -40 -63 -21 0 -24 3 -18 28 13 58 15 62 40 62 21 0 24 -3 18 -27z"/>
<path d="M2212 888 c-6 -22 -15 -33 -28 -34 -46 -2 -52 -5 -57 -24 -5 -19 0
-20 109 -20 63 0 114 1 114 3 0 2 -29 27 -65 55 l-64 52 -9 -32z"/>
<path d="M416 855 c-112 -40 -170 -180 -101 -245 45 -42 158 -45 236 -4 43 22
21 34 -38 22 -81 -18 -143 10 -143 64 0 16 12 18 130 18 l129 0 7 34 c18 97
-97 155 -220 111z m131 -62 c7 -9 13 -20 13 -25 0 -4 -39 -8 -86 -8 -94 0
-105 11 -43 43 40 21 97 16 116 -10z"/>
<path d="M1187 856 c-59 -22 -114 -64 -131 -101 -55 -114 39 -203 185 -175 28
6 53 10 54 10 2 0 6 11 9 24 3 13 8 31 12 39 4 10 -9 8 -45 -10 -84 -42 -156
-12 -154 63 1 41 28 75 78 98 48 23 89 20 123 -9 l30 -25 7 41 c4 22 5 43 2
46 -14 13 -134 13 -170 -1z"/>
<path d="M1516 860 c-53 -16 -96 -54 -122 -107 -31 -62 -27 -107 11 -143 45
-42 158 -45 236 -4 44 23 22 32 -49 20 -45 -7 -64 -6 -87 5 -29 14 -58 56 -49
71 3 4 63 8 133 8 l129 0 6 31 c9 46 -17 97 -58 114 -38 16 -104 18 -150 5z
m97 -51 c22 -12 37 -28 37 -41 0 -5 -41 -8 -91 -8 -84 0 -90 1 -78 17 16 19
66 42 92 43 10 0 28 -5 40 -11z"/>
<path d="M832 843 c-29 -14 -39 -14 -69 -4 -19 7 -36 11 -37 9 -5 -5 -66 -256
-66 -268 0 -7 15 -10 36 -8 l36 3 23 89 c18 73 28 95 54 118 33 29 68 35 102
18 24 -13 24 -33 -1 -122 -29 -104 -28 -110 17 -106 l37 3 23 90 c23 93 28
142 15 161 -24 36 -114 45 -170 17z"/>
<path d="M1912 842 c-28 -13 -38 -14 -68 -3 -20 7 -37 11 -38 9 -2 -1 -15 -55
-30 -118 -14 -63 -29 -125 -33 -138 -5 -22 -3 -23 32 -20 l38 3 24 90 c18 70
30 96 53 118 32 28 68 34 101 17 24 -14 24 -42 -1 -132 -27 -96 -26 -98 15
-98 42 0 46 8 71 133 20 95 15 129 -21 145 -36 17 -104 14 -143 -6z"/>
<path d="M2850 810 c0 -14 7 -20 21 -20 17 0 20 -5 16 -22 -3 -13 -9 -41 -13
-63 -3 -22 -14 -52 -22 -67 -14 -25 -15 -30 -2 -43 13 -13 22 -7 73 44 41 41
56 63 51 75 -6 15 -9 15 -30 -5 -28 -27 -30 -19 -10 64 l13 57 -48 0 c-42 0
-49 -3 -49 -20z"/>
<path d="M2185 781 c-7 -13 -45 -170 -45 -190 0 -17 6 -21 34 -21 l33 0 27 98
c14 54 26 103 26 109 0 10 -68 14 -75 4z"/>
</g>
</svg>
